<?xml version="1.0" standalone="no"?>
<!DOCTYPE svg PUBLIC "-//W3C//DTD SVG 20010904//EN"
 "http://www.w3.org/TR/2001/REC-SVG-20010904/DTD/svg10.dtd">
<svg version="1.0" xmlns="http://www.w3.org/2000/svg"
 width="256.000000pt" height="256.000000pt" viewBox="0 0 256.000000 256.000000"
 preserveAspectRatio="xMidYMid meet">
<metadata>
Created by potrace 1.14, written by Peter Selinger 2001-2017
</metadata>
<g transform="translate(0.000000,256.000000) scale(0.100000,-0.100000)"
fill="#000000" stroke="none">
<path d="M0 1790 c0 -507 3 -770 10 -770 6 0 10 18 10 40 0 38 2 40 30 40 27
0 30 3 30 30 0 23 4 30 20 30 11 0 20 5 20 10 0 6 18 10 40 10 39 0 40 -1 40
-36 0 -28 8 -43 40 -74 22 -21 40 -46 40 -54 0 -11 9 -16 30 -16 17 0 30 -4
30 -10 0 -6 29 -10 66 -10 48 0 70 4 82 17 12 12 13 18 4 21 -18 6 -14 22 6
22 10 0 24 9 32 20 8 11 22 20 32 20 10 0 18 5 18 10 0 6 -63 10 -170 10 -163
0 -170 1 -170 20 0 11 5 20 10 20 6 0 10 7 10 16 0 20 24 44 44 44 9 0 16 5
16 10 0 6 9 10 20 10 11 0 20 5 20 10 0 6 23 10 50 10 28 0 50 -4 50 -10 0 -5
9 -10 20 -10 11 0 20 -4 20 -10 0 -5 9 -10 20 -10 11 0 20 -4 20 -10 0 -5 5
-10 10 -10 6 0 10 60 10 160 l0 160 40 0 c33 0 40 -3 40 -20 0 -11 5 -20 10
-20 6 0 10 -18 10 -40 0 -22 5 -40 10 -40 6 0 10 -18 10 -40 0 -38 2 -40 30
-40 l30 0 0 70 c0 40 -4 70 -10 70 -5 0 -10 14 -10 30 0 17 5 30 10 30 6 0 10
33 10 80 0 47 4 80 10 80 6 0 10 9 10 20 0 11 5 20 10 20 6 0 10 -4 10 -10 0
-5 14 -10 30 -10 29 0 30 1 30 50 l0 50 40 0 c22 0 40 5 40 10 0 6 16 10 35
10 38 0 85 36 85 65 0 8 9 15 20 15 13 0 20 -7 20 -20 0 -19 7 -20 89 -20 62
0 91 4 95 13 5 10 7 10 12 0 3 -7 19 -13 35 -13 16 0 29 -4 29 -10 0 -5 16
-10 36 -10 28 0 43 8 67 33 19 20 32 27 34 20 3 -7 13 -13 24 -13 10 0 19 -4
19 -10 0 -15 117 -13 122 2 7 21 38 -17 38 -46 0 -22 4 -26 30 -26 17 0 30 5
30 10 0 6 9 10 20 10 11 0 20 -4 20 -10 0 -5 7 -10 16 -10 20 0 44 -24 44 -44
0 -9 8 -16 20 -16 19 0 20 -7 20 -200 0 -193 1 -200 20 -200 13 0 20 7 20 20
0 13 7 20 20 20 18 0 20 7 20 60 l0 60 50 0 50 0 0 -100 c0 -60 -4 -100 -10
-100 -5 0 -10 -7 -10 -16 0 -20 -24 -44 -44 -44 -9 0 -16 -8 -16 -20 0 -13 -7
-20 -20 -20 -11 0 -20 -4 -20 -10 0 -5 -9 -10 -20 -10 -16 0 -20 7 -20 30 0
20 -5 30 -15 30 -10 0 -15 -10 -15 -28 0 -15 -4 -32 -8 -37 -5 -6 -17 -31 -26
-58 -10 -26 -22 -47 -27 -47 -5 0 -9 -7 -9 -15 0 -8 -4 -15 -9 -15 -5 0 -11
-11 -15 -23 -3 -13 -19 -41 -36 -62 -16 -21 -30 -41 -30 -44 0 -8 45 47 71 87
11 17 25 32 30 32 5 0 9 7 9 16 0 26 40 74 61 74 10 0 19 5 19 10 0 6 5 10 10
10 6 0 10 -9 10 -20 0 -11 5 -20 10 -20 6 0 10 5 10 10 0 6 9 10 20 10 12 0
20 7 20 16 0 20 24 44 44 44 13 0 16 -12 16 -60 0 -33 4 -60 10 -60 6 0 10 -9
10 -20 0 -11 5 -20 10 -20 6 0 10 -9 10 -20 0 -13 7 -20 20 -20 11 0 20 -4 20
-10 0 -5 5 -10 10 -10 6 0 10 14 10 30 0 17 -4 30 -10 30 -6 0 -10 30 -10 70
0 40 4 70 10 70 6 0 10 -9 10 -20 0 -11 5 -20 10 -20 6 0 10 -8 10 -18 0 -10
9 -24 20 -32 14 -10 20 -26 20 -50 0 -24 6 -40 20 -50 11 -8 20 -22 20 -32 0
-10 5 -18 10 -18 6 0 10 -7 10 -16 0 -9 13 -29 30 -44 16 -15 30 -35 30 -44 0
-9 5 -16 10 -16 6 0 10 -8 10 -18 0 -10 9 -24 20 -32 11 -8 20 -22 20 -31 0
-10 6 -19 13 -22 8 -3 5 -11 -11 -24 -12 -11 -22 -26 -22 -33 0 -6 -13 -25
-30 -40 -16 -15 -30 -35 -30 -44 0 -12 -10 -16 -40 -16 -33 0 -40 3 -40 20 0
17 -7 20 -40 20 -22 0 -40 5 -40 10 0 6 -13 10 -30 10 -16 0 -30 5 -30 10 0 6
-12 10 -26 10 -16 0 -37 12 -54 30 -15 17 -35 30 -44 30 -9 0 -16 5 -16 10 0
6 -13 10 -30 10 -21 0 -30 5 -30 16 0 44 -83 62 -110 24 -18 -26 -30 -26 -30
0 0 17 -7 20 -45 20 -36 0 -52 6 -71 25 -22 22 -24 28 -12 43 7 9 17 20 23 24
5 4 7 10 3 13 -5 5 -51 -11 -100 -36 -10 -5 -40 -9 -68 -9 -27 0 -50 -4 -50
-10 0 -5 -18 -10 -40 -10 -22 0 -40 -4 -40 -10 0 -6 -37 -10 -90 -10 -53 0
-90 4 -90 10 0 6 -9 10 -20 10 -11 0 -20 5 -20 10 0 6 -22 10 -50 10 -27 0
-50 5 -50 10 0 6 -22 10 -48 10 -36 0 -51 -5 -62 -20 -8 -11 -25 -20 -39 -20
-13 0 -33 -10 -44 -22 -13 -16 -21 -19 -24 -10 -6 15 -103 17 -103 2 0 -5 -7
-10 -16 -10 -20 0 -44 -24 -44 -44 0 -9 -8 -16 -18 -16 -10 0 -24 -9 -32 -20
-8 -11 -20 -20 -28 -20 -22 0 -62 -48 -62 -75 0 -18 -5 -25 -20 -25 -11 0 -20
-4 -20 -10 0 -5 -9 -10 -20 -10 -11 0 -20 -4 -20 -10 0 -5 -9 -10 -20 -10 -12
0 -20 -7 -20 -16 0 -19 -24 -44 -42 -44 -8 0 -20 -9 -28 -20 -8 -12 -26 -20
-42 -20 -15 0 -28 -4 -28 -10 0 -5 -9 -10 -20 -10 -11 0 -20 -4 -20 -10 0 -5
-8 -10 -18 -10 -10 0 -24 -9 -32 -20 -8 -11 -21 -20 -28 -20 -8 0 -27 -13 -42
-30 -15 -16 -33 -30 -40 -30 -32 0 -40 -28 -40 -144 l0 -116 1280 0 1280 0 0
1280 0 1280 -1280 0 -1280 0 0 -770z m484 353 c6 -14 8 -14 20 3 13 16 17 17
40 5 14 -8 26 -20 26 -28 0 -16 -5 -16 -31 -3 -15 9 -21 7 -25 -5 -8 -19 -30
-20 -38 0 -8 22 -21 18 -34 -10 -12 -25 -32 -34 -32 -14 0 18 40 69 55 69 7 0
16 -7 19 -17z m-189 -120 c42 -48 28 -74 -15 -28 -22 24 -24 24 -42 8 -15 -13
-23 -15 -37 -6 -13 8 -23 7 -42 -8 -29 -22 -39 -24 -39 -6 0 7 14 24 32 37 25
18 35 21 49 12 13 -9 20 -8 29 3 18 22 38 18 65 -12z m177 -128 c14 -31 1 -47
-18 -21 -13 19 -14 19 -34 1 -17 -15 -22 -16 -36 -4 -14 11 -18 11 -21 2 -5
-14 -33 -18 -33 -5 2 31 51 54 66 31 5 -8 10 -6 16 5 14 24 47 20 60 -9z
m1698 -655 c8 -11 25 -20 38 -20 27 0 52 -21 52 -44 0 -9 5 -16 10 -16 6 0 10
-13 10 -28 0 -16 8 -34 20 -42 11 -8 20 -22 20 -32 0 -11 7 -18 20 -18 13 0
20 -7 20 -20 0 -11 -4 -20 -10 -20 -5 0 -10 -4 -10 -10 0 -6 33 -10 80 -10 73
0 80 -2 80 -20 0 -11 5 -20 10 -20 6 0 10 -18 10 -40 0 -22 5 -40 10 -40 6 0
10 -20 10 -45 0 -35 -6 -52 -25 -70 -13 -14 -29 -25 -35 -25 -16 0 -60 47 -60
65 0 8 -4 15 -10 15 -5 0 -10 9 -10 20 0 11 -4 20 -10 20 -5 0 -10 7 -10 16 0
9 -13 29 -30 44 -16 15 -30 35 -30 44 0 9 -4 16 -10 16 -5 0 -10 9 -10 20 0
11 -4 20 -10 20 -5 0 -10 8 -10 18 0 10 -9 24 -20 32 -11 8 -20 22 -20 32 0
11 -7 18 -20 18 -13 0 -20 7 -20 18 0 10 -9 24 -20 32 -12 8 -20 26 -20 42 0
15 -4 28 -10 28 -5 0 -10 9 -10 20 0 11 4 20 8 20 4 0 14 -9 22 -20z m-620
-758 c-5 -2 -10 -10 -10 -18 0 -8 -20 -35 -45 -59 -44 -44 -46 -45 -110 -45
-37 0 -65 -4 -65 -10 0 -5 -13 -10 -30 -10 -16 0 -30 5 -30 10 0 6 -29 10 -68
10 -56 0 -70 3 -82 20 -8 11 -20 20 -27 20 -8 0 -34 20 -58 45 l-45 44 0 136
0 135 25 0 c15 0 25 -6 25 -14 0 -9 20 -19 50 -27 28 -7 50 -16 50 -20 0 -29
262 -41 325 -15 19 8 49 32 67 52 l33 37 3 -144 c2 -92 -1 -145 -8 -147z"/>
<path d="M860 1630 c0 -23 4 -30 20 -30 11 0 20 5 20 10 0 6 23 10 50 10 28 0
50 -4 50 -10 0 -5 18 -10 40 -10 33 0 40 3 40 20 0 13 -7 20 -20 20 -11 0 -20
5 -20 10 0 6 -37 10 -90 10 l-90 0 0 -30z"/>
<path d="M1480 1620 c0 -19 7 -20 90 -20 53 0 90 -4 90 -10 0 -5 9 -10 20 -10
16 0 20 7 20 30 l0 30 -110 0 c-103 0 -110 -1 -110 -20z"/>
<path d="M893 1485 c-15 -17 -17 -45 -3 -45 6 0 10 5 10 10 0 6 9 10 20 10 13
0 20 -7 20 -20 0 -16 7 -20 30 -20 23 0 30 4 30 20 0 16 7 20 30 20 34 0 37 5
16 26 -20 19 -136 19 -153 -1z"/>
<path d="M1513 1485 c-18 -20 -16 -25 7 -25 13 0 20 -7 20 -20 0 -16 7 -20 30
-20 23 0 30 4 30 20 0 13 7 20 20 20 13 0 20 -7 20 -20 0 -24 6 -25 26 -6 37
38 3 66 -78 66 -41 -1 -67 -6 -75 -15z"/>
<path d="M1980 1374 c0 -47 -16 -74 -44 -74 -9 0 -16 -8 -16 -20 0 -13 7 -20
20 -20 11 0 20 5 20 10 0 6 9 10 20 10 13 0 20 7 20 20 0 11 5 20 10 20 6 0
10 23 10 50 0 43 -3 50 -20 50 -17 0 -20 -7 -20 -46z"/>
<path d="M600 1320 c0 -73 2 -80 20 -80 18 0 20 7 20 80 0 73 -2 80 -20 80
-18 0 -20 -7 -20 -80z"/>
<path d="M1280 1360 c0 -22 5 -40 10 -40 6 0 10 -27 10 -60 0 -33 4 -60 10
-60 6 0 10 -9 10 -20 0 -13 7 -20 20 -20 17 0 20 7 20 40 0 22 -4 40 -10 40
-6 0 -10 27 -10 60 0 33 -4 60 -10 60 -5 0 -10 9 -10 20 0 13 -7 20 -20 20
-17 0 -20 -7 -20 -40z"/>
<path d="M1180 1240 c0 -11 -4 -20 -10 -20 -5 0 -10 -9 -10 -20 0 -11 -4 -20
-10 -20 -5 0 -10 -9 -10 -20 0 -23 25 -27 46 -6 8 8 14 26 14 40 0 14 5 26 10
26 6 0 10 9 10 20 0 13 -7 20 -20 20 -13 0 -20 -7 -20 -20z"/>
<path d="M660 1170 c0 -43 3 -50 20 -50 16 0 20 7 20 30 0 17 -4 30 -10 30 -5
0 -10 9 -10 20 0 11 -4 20 -10 20 -5 0 -10 -22 -10 -50z"/>
<path d="M1180 1120 c0 -13 7 -20 20 -20 13 0 20 7 20 20 0 13 -7 20 -20 20
-13 0 -20 -7 -20 -20z"/>
<path d="M1280 1120 c0 -13 7 -20 20 -20 13 0 20 7 20 20 0 13 -7 20 -20 20
-13 0 -20 -7 -20 -20z"/>
<path d="M1060 984 c0 -8 6 -22 14 -30 8 -8 22 -14 30 -14 9 0 16 -4 16 -10 0
-5 9 -10 20 -10 11 0 20 -4 20 -10 0 -6 46 -10 118 -10 106 0 119 2 132 20 8
11 20 20 28 20 18 0 42 25 42 44 0 24 -52 21 -70 -4 -8 -11 -22 -20 -32 -20
-10 0 -18 -4 -18 -10 0 -6 -33 -10 -80 -10 -47 0 -80 4 -80 10 0 6 -9 10 -20
10 -11 0 -20 5 -20 10 0 6 -13 10 -30 10 -16 0 -30 5 -30 10 0 6 -9 10 -20 10
-12 0 -20 -7 -20 -16z"/>
</g>
</svg>
